<?xml version="1.0" encoding="utf-8"?>
<!-- Generator: Adobe Illustrator 25.2.1, SVG Export Plug-In . SVG Version: 6.00 Build 0)  -->
<svg version="1.1" id="Capa_1" xmlns="http://www.w3.org/2000/svg" xmlns:xlink="http://www.w3.org/1999/xlink" x="0px" y="0px"
	 viewBox="0 0 512 512" style="enable-background:new 0 0 512 512;" xml:space="preserve">
<style type="text/css">
	.st0{fill:#41145F;}
</style>
<g>
	<path class="st0" d="M480,224H32c-17.67,0-32,14.33-32,32s14.33,32,32,32h448c17.67,0,32-14.33,32-32S497.67,224,480,224z"/>
	<path class="st0" d="M32,138.67h448c17.67,0,32-14.33,32-32s-14.33-32-32-32H32c-17.67,0-32,14.33-32,32S14.33,138.67,32,138.67z"
		/>
	<path class="st0" d="M480,373.33H32c-17.67,0-32,14.33-32,32s14.33,32,32,32h448c17.67,0,32-14.33,32-32S497.67,373.33,480,373.33z
		"/>
</g>
</svg>
